<?xml version="1.0" encoding="utf-8"?>
<!-- Generator: $$$/GeneralStr/196=Adobe Illustrator 27.6.0, SVG Export Plug-In . SVG Version: 6.00 Build 0)  -->
<svg version="1.1" id="Calque_1" xmlns="http://www.w3.org/2000/svg" xmlns:xlink="http://www.w3.org/1999/xlink" x="0px" y="0px"
	 viewBox="0 0 843.9 284.2" style="enable-background:new 0 0 843.9 284.2;" xml:space="preserve">
<g>
	<path d="M151.2,26.3h35.1v196H287v28.5H151.2V26.3z"/>
	<path d="M403,254.4c-60.1,0-102.2-45.7-102.2-115.6C300.8,69,342.7,23.4,403,23.4c49.2,0,88,35,89.5,80.7H457
		c-1.8-29.7-24.4-51-54-51c-38.8,0-65.6,33-65.6,85.6c0,52.6,26.9,86,65.6,86c28.9,0,52.3-22.1,54-51.3h35.4
		C490.9,219.1,451.7,254.4,403,254.4z"/>
	<path d="M502.8,250.8L585.8,26h37.2l82.6,224.9h-37.4l-20.4-58.5h-87.1l-20.7,58.5H502.8z M638.3,165l-33.7-96.9L570.4,165H638.3z"
		/>
</g>
<path d="M67,60.9v39.6c0,23.4-15.4,35.1-31.6,39.9C51.8,145,67,157,67,180.6v19.2v18c0,22.9,10.9,31.4,30.5,31.4v29
	c-38.7,0-67.7-11.5-67.7-48.8v-21.2v-18.8c0-22.9-9.1-31.8-29.8-36.6v-25c20.7-4.7,29.8-13.8,29.8-36.4V49.1
	C29.8,11.9,58.9,0,97.5,0v29C77.9,29,67,38,67,60.9z"/>
<path d="M773.1,217.8v-37.2c0-23.6,15.2-35.6,31.8-40.1c-16.4-4.8-31.8-16.2-31.8-39.9V80.4V60.9c0-22.9-10.9-31.9-30.6-31.9V0
	c38.7,0,67.8,11.9,67.8,49.1v22.1v20.4c0,22.8,9,31.8,29.7,36.4v25c-20.5,4.8-29.7,13.6-29.7,36.6v39.9c0,37-29,48.8-67.8,48.8v-29
	C762.2,249.2,773.1,240.9,773.1,217.8z"/>
</svg>
